<svg width="398" height="398" viewBox="0 0 398 398" fill="none" xmlns="http://www.w3.org/2000/svg">
<circle cx="199" cy="199" r="199" fill="#FFD600"/>
<g filter="url(#filter0_d_120_4)">
<path d="M144.508 327.007C150.449 327.007 155.982 325.42 161.109 322.246C166.318 319.154 171.201 314.84 175.758 309.307C180.396 303.854 184.75 297.344 188.819 289.775C192.97 282.207 196.876 274.028 200.538 265.239C191.668 235.942 182.675 209.697 173.561 186.504C164.446 163.311 155.576 143.657 146.949 127.544C142.473 118.918 137.794 112.448 132.911 108.135C128.11 103.74 123.552 101.543 119.239 101.543C116.635 101.543 114.316 102.113 112.281 103.252C110.247 104.31 108.497 105.49 107.032 106.792L103.98 103.008C105.689 101.299 107.805 99.5492 110.328 97.7588C112.851 95.9684 115.781 94.3001 119.117 92.7539C122.454 91.2077 126.197 89.9463 130.348 88.9697C134.579 87.9932 139.218 87.5049 144.264 87.5049C146.786 87.5049 149.594 87.749 152.687 88.2373C155.779 88.6442 158.912 89.5394 162.086 90.9229C165.341 92.2249 168.556 94.0967 171.729 96.5381C174.903 98.8981 177.914 102.072 180.763 106.06C187.029 114.849 193.661 127.259 200.66 143.291C207.659 159.242 215.105 178.651 222.999 201.519C225.522 193.95 228.004 186.423 230.445 178.936C232.887 171.367 235.369 164.043 237.892 156.963C240.414 149.801 242.937 142.925 245.46 136.333C248.064 129.741 250.75 123.556 253.517 117.778C256.365 111.675 259.254 106.304 262.184 101.665C265.195 96.945 268.45 92.998 271.949 89.8242C275.53 86.6504 279.518 84.2497 283.912 82.6221C288.307 80.9131 293.352 80.0586 299.049 80.0586C303.281 80.0586 306.739 80.9945 309.425 82.8662C312.11 84.6566 313.453 87.3828 313.453 91.0449C313.453 94.3001 312.924 96.9857 311.866 99.1016C310.808 101.217 309.343 102.275 307.472 102.275C305.925 102.275 304.705 101.706 303.81 100.566C302.996 99.3457 302.141 98.0436 301.246 96.6602C300.432 95.2767 299.415 94.0153 298.194 92.876C297.055 91.6553 295.387 91.0449 293.189 91.0449C288.225 91.0449 283.627 93.3236 279.396 97.8809C275.245 102.438 271.298 108.623 267.555 116.436C263.893 124.248 260.312 133.403 256.812 143.901C253.395 154.318 249.936 165.386 246.437 177.104C242.937 188.823 239.275 200.908 235.45 213.359C231.625 225.729 227.516 237.773 223.121 249.492C218.727 261.211 213.884 272.279 208.595 282.695C203.386 293.193 197.568 302.349 191.139 310.161C184.71 317.974 177.589 324.159 169.776 328.716C161.964 333.273 153.297 335.552 143.775 335.552C139.625 335.552 135.597 335.186 131.69 334.453C127.866 333.802 124.448 332.866 121.437 331.646C118.344 330.425 115.821 328.96 113.868 327.251C111.834 325.542 110.694 323.711 110.45 321.758C110.287 320.293 110.369 318.787 110.694 317.241C110.938 315.776 111.386 314.434 112.037 313.213C112.688 311.992 113.583 310.975 114.723 310.161C115.781 309.347 117.042 308.94 118.507 308.94C119.402 308.94 120.257 309.388 121.07 310.283C121.803 311.178 122.617 312.277 123.512 313.579C124.407 314.963 125.383 316.427 126.441 317.974C127.581 319.52 128.964 320.944 130.592 322.246C132.219 323.63 134.132 324.769 136.329 325.664C138.608 326.559 141.334 327.007 144.508 327.007Z" fill="#1B1B1B"/>
</g>
<defs>
<filter id="filter0_d_120_4" x="94.9805" y="72.0586" width="233.473" height="279.493" filterUnits="userSpaceOnUse" color-interpolation-filters="sRGB">
<feFlood flood-opacity="0" result="BackgroundImageFix"/>
<feColorMatrix in="SourceAlpha" type="matrix" values="0 0 0 0 0 0 0 0 0 0 0 0 0 0 0 0 0 0 127 0" result="hardAlpha"/>
<feOffset dx="3" dy="4"/>
<feGaussianBlur stdDeviation="6"/>
<feComposite in2="hardAlpha" operator="out"/>
<feColorMatrix type="matrix" values="0 0 0 0 0 0 0 0 0 0 0 0 0 0 0 0 0 0 0.25 0"/>
<feBlend mode="normal" in2="BackgroundImageFix" result="effect1_dropShadow_120_4"/>
<feBlend mode="normal" in="SourceGraphic" in2="effect1_dropShadow_120_4" result="shape"/>
</filter>
</defs>
</svg>
